<svg width="24" height="24" viewBox="0 0 24 24" fill="none" xmlns="http://www.w3.org/2000/svg">
<path d="M0 1.92C0 0.859613 0.895431 0 2 0H2.28052C3.02939 0 3.71552 0.401625 4.05847 1.04072L10.2221 12.5267C10.9667 13.9144 13.0333 13.9144 13.7779 12.5267L19.9415 1.04072C20.2845 0.401624 20.9706 0 21.7195 0H22C23.1046 0 24 0.859613 24 1.92V22.08C24 23.1404 23.1046 24 22 24C20.8954 24 20 23.1404 20 22.08V14.9993C20 6 21.7195 5 16.5 14.4L13.7889 19.6054C13.0518 21.0205 10.9482 21.0205 10.2111 19.6054L7.5 14.4C3.15512 6.56388 4 5 4 14.9993V22.08C4 23.1404 3.10457 24 2 24C0.895431 24 0 23.1404 0 22.08V1.92Z" fill="#3087ED"/>
<path d="M2.09307 23.52C1.58417 23.52 1.18591 23.3811 0.898268 23.1034C0.632756 22.8257 0.5 22.4412 0.5 21.9498V2.05018C0.5 1.53747 0.643819 1.15293 0.931457 0.896577C1.2191 0.618859 1.6063 0.48 2.09307 0.48C2.55772 0.48 2.91174 0.565452 3.15512 0.736355C3.42063 0.885896 3.66402 1.16362 3.88528 1.56951L12.1532 16.4687L20.2143 1.56951C20.4355 1.16362 20.6679 0.885896 20.9113 0.736355C21.1546 0.565452 21.5087 0.48 21.9733 0.48C22.4601 0.48 22.8362 0.618859 23.1017 0.896577C23.3672 1.15293 23.5 1.53747 23.5 2.05018V21.9498C23.5 22.4412 23.3672 22.8257 23.1017 23.1034C22.8583 23.3811 22.4822 23.52 21.9733 23.52C21.4644 23.52 21.0772 23.3811 20.8117 23.1034C20.5462 22.8257 20.4134 22.4412 20.4134 21.9498L20.5 6.56388L13.4437 19.1619C13.2667 19.4824 13.0786 19.7174 12.8795 19.8669C12.6804 20.0165 12.4038 20.0912 12.0498 20.0912C11.6958 20.0912 11.4081 20.0165 11.1869 19.8669C10.9656 19.696 10.7665 19.461 10.5895 19.1619L3.61977 6.56388V21.9498C3.61977 22.4412 3.48701 22.8257 3.2215 23.1034C2.97811 23.3811 2.60197 23.52 2.09307 23.52Z" fill="black"/>
</svg>
