<svg width="81" height="30" viewBox="0 0 81 30" fill="none" xmlns="http://www.w3.org/2000/svg">
<path d="M15.796 25.6729L1.62918 19.4756C0.54306 19.0111 0 18.2044 0 17.0554C0 16.4931 0.129862 16.0286 0.389587 15.6619C0.672923 15.2707 1.08612 14.9529 1.62918 14.7085L15.796 8.47451C16.1974 8.30339 16.5515 8.26672 16.8585 8.3645C17.189 8.46229 17.4488 8.64564 17.6377 8.91456C17.8265 9.18347 17.9328 9.48906 17.9564 9.83132C17.98 10.1736 17.9092 10.5036 17.7439 10.8214C17.6022 11.1148 17.3307 11.347 16.9293 11.5182L1.48751 18.2288V15.9553L16.9293 22.6659C17.3307 22.8371 17.6022 23.0815 17.7439 23.3993C17.9092 23.6927 17.98 24.0105 17.9564 24.3528C17.9328 24.6706 17.8265 24.9639 17.6377 25.2329C17.4488 25.5018 17.189 25.6851 16.8585 25.7829C16.5515 25.8807 16.1974 25.844 15.796 25.6729Z" fill="#1A1A1A"/>
<path d="M23.9635 27.9098C23.2551 27.9098 22.7121 27.7142 22.3343 27.3231C21.9565 26.9075 21.7676 26.3207 21.7676 25.5629V11.7015C21.7676 10.9436 21.9565 10.3691 22.3343 9.978C22.7121 9.58685 23.2433 9.39127 23.928 9.39127C24.6128 9.39127 25.144 9.58685 25.5218 9.978C25.8996 10.3691 26.0885 10.9436 26.0885 11.7015V13.04V14.3784L25.6989 13.2783C26.1711 12.056 26.9031 11.0903 27.8947 10.3814C28.8864 9.67241 30.067 9.31793 31.4364 9.31793C32.8295 9.31793 33.9747 9.66019 34.8719 10.3447C35.7691 11.0292 36.3948 12.0804 36.749 13.4983H36.2531C36.7254 12.2027 37.5045 11.1881 38.5907 10.4547C39.6768 9.69686 40.9282 9.31793 42.3449 9.31793C43.6671 9.31793 44.7532 9.58685 45.6032 10.1247C46.4768 10.6625 47.1262 11.4815 47.5512 12.5816C47.9762 13.6573 48.1887 15.0263 48.1887 16.6887V25.5629C48.1887 26.3207 47.988 26.9075 47.5866 27.3231C47.2088 27.7142 46.6657 27.9098 45.9574 27.9098C45.2491 27.9098 44.706 27.7142 44.3282 27.3231C43.9504 26.9075 43.7615 26.3207 43.7615 25.5629V16.872C43.7615 15.503 43.5372 14.5007 43.0886 13.8651C42.6636 13.2294 41.9317 12.9116 40.8928 12.9116C39.7358 12.9116 38.8268 13.3394 38.1657 14.1951C37.5046 15.0263 37.174 16.1875 37.174 17.6788V25.5629C37.174 26.3207 36.9851 26.9075 36.6073 27.3231C36.2295 27.7142 35.6865 27.9098 34.9781 27.9098C34.2698 27.9098 33.7149 27.7142 33.3135 27.3231C32.9358 26.9075 32.7469 26.3207 32.7469 25.5629V16.872C32.7469 15.503 32.5226 14.5007 32.0739 13.8651C31.6489 13.2294 30.9288 12.9116 29.9135 12.9116C28.7566 12.9116 27.8475 13.3394 27.1864 14.1951C26.5253 15.0263 26.1947 16.1875 26.1947 17.6788V25.5629C26.1947 27.1275 25.451 27.9098 23.9635 27.9098Z" fill="#1A1A1A"/>
<path d="M53.5704 28.6799C53.4287 29.1444 53.2044 29.4744 52.8975 29.67C52.5905 29.89 52.2482 30 51.8704 30C51.5162 30 51.1856 29.9022 50.8787 29.7066C50.5718 29.5111 50.3592 29.2299 50.2412 28.8632C50.0995 28.521 50.0995 28.1054 50.2412 27.6164L58.4225 1.3238C58.5642 0.859307 58.7885 0.51705 59.0954 0.297028C59.426 0.0770074 59.7684 -0.0207796 60.1225 0.00366696C60.4767 0.00366696 60.8073 0.101454 61.1142 0.297028C61.4212 0.492604 61.6337 0.761519 61.7517 1.10378C61.8934 1.44603 61.8934 1.86163 61.7517 2.35057L53.5704 28.6799Z" fill="#1A1A1A"/>
<path d="M65.204 25.6729C64.8026 25.844 64.4367 25.8807 64.1061 25.7829C63.7992 25.6851 63.5512 25.5018 63.3624 25.2329C63.1735 24.9639 63.0672 24.6706 63.0436 24.3528C63.02 24.0105 63.0908 23.6927 63.2561 23.3993C63.4214 23.0815 63.6929 22.8371 64.0707 22.6659L79.5125 15.9553V18.2288L64.0707 11.5182C63.6929 11.347 63.4214 11.1148 63.2561 10.8214C63.0908 10.5036 63.02 10.1736 63.0436 9.83132C63.0672 9.48906 63.1735 9.18347 63.3624 8.91456C63.5512 8.64564 63.7992 8.46229 64.1061 8.3645C64.4367 8.26672 64.8026 8.30339 65.204 8.47451L79.3708 14.7085C80.4569 15.173 81 15.9553 81 17.0554C81 17.6177 80.8583 18.1066 80.575 18.5222C80.3153 18.9133 79.9139 19.2311 79.3708 19.4756L65.204 25.6729Z" fill="#1A1A1A"/>
</svg>
