<svg width="17" height="23" viewBox="0 0 17 23" fill="none" xmlns="http://www.w3.org/2000/svg">
<path d="M5 20.5C5 21.8807 3.88071 23 2.5 23C1.11929 23 0 21.8807 0 20.5C0 19.1193 1.11929 18 2.5 18C3.88071 18 5 19.1193 5 20.5Z" fill="#CCCCCC"/>
<path d="M11 20.5C11 21.8807 9.88071 23 8.5 23C7.11929 23 6 21.8807 6 20.5C6 19.1193 7.11929 18 8.5 18C9.88071 18 11 19.1193 11 20.5Z" fill="#CCCCCC"/>
<path d="M17 20.5C17 21.8807 15.8807 23 14.5 23C13.1193 23 12 21.8807 12 20.5C12 19.1193 13.1193 18 14.5 18C15.8807 18 17 19.1193 17 20.5Z" fill="#CCCCCC"/>
<path d="M17 14.5C17 15.8807 15.8807 17 14.5 17C13.1193 17 12 15.8807 12 14.5C12 13.1193 13.1193 12 14.5 12C15.8807 12 17 13.1193 17 14.5Z" fill="#CCCCCC"/>
<path d="M11 14.5C11 15.8807 9.88071 17 8.5 17C7.11929 17 6 15.8807 6 14.5C6 13.1193 7.11929 12 8.5 12C9.88071 12 11 13.1193 11 14.5Z" fill="#CCCCCC"/>
<path d="M11 8.5C11 9.88071 9.88071 11 8.5 11C7.11929 11 6 9.88071 6 8.5C6 7.11929 7.11929 6 8.5 6C9.88071 6 11 7.11929 11 8.5Z" fill="#CCCCCC"/>
<path d="M17 8.5C17 9.88071 15.8807 11 14.5 11C13.1193 11 12 9.88071 12 8.5C12 7.11929 13.1193 6 14.5 6C15.8807 6 17 7.11929 17 8.5Z" fill="#CCCCCC"/>
<path d="M17 2.5C17 3.88071 15.8807 5 14.5 5C13.1193 5 12 3.88071 12 2.5C12 1.11929 13.1193 0 14.5 0C15.8807 0 17 1.11929 17 2.5Z" fill="#CCCCCC"/>
</svg>
